<svg width="64" height="64" viewBox="0 0 64 64" fill="none" xmlns="http://www.w3.org/2000/svg">
  <rect width="64" height="64" rx="12" fill="#1A2535"/>
  <circle cx="32" cy="32" r="26" stroke="#B8934A" stroke-width="1.2" fill="none"/>
  <circle cx="32" cy="32" r="20" stroke="#B8934A" stroke-width="0.6" fill="none" opacity="0.4"/>
  <clipPath id="fc"><circle cx="32" cy="32" r="19"/></clipPath>
  <g clip-path="url(#fc)">
    <line x1="13" y1="44" x2="51" y2="44" stroke="#B8934A" stroke-width="1.1" opacity="0.9"/>
    <line x1="13" y1="40" x2="51" y2="40" stroke="#B8934A" stroke-width="1.0" opacity="0.8"/>
    <line x1="13" y1="36" x2="51" y2="36" stroke="#B8934A" stroke-width="0.9" opacity="0.7"/>
    <line x1="13" y1="32" x2="51" y2="32" stroke="#B8934A" stroke-width="0.8" opacity="0.6"/>
    <line x1="13" y1="27" x2="51" y2="27" stroke="#B8934A" stroke-width="0.7" opacity="0.5"/>
    <line x1="13" y1="22" x2="51" y2="22" stroke="#B8934A" stroke-width="0.6" opacity="0.4"/>
  </g>
  <line x1="32" y1="38" x2="32" y2="16" stroke="#FAF8F4" stroke-width="1.8"/>
  <polyline points="26,22 32,15 38,22" stroke="#FAF8F4" stroke-width="1.8" fill="none" stroke-linejoin="round"/>
  <line x1="24" y1="38" x2="40" y2="38" stroke="#FAF8F4" stroke-width="1.8"/>
  <line x1="24" y1="38" x2="22" y2="44" stroke="#FAF8F4" stroke-width="1.2" opacity="0.5"/>
  <line x1="40" y1="38" x2="42" y2="44" stroke="#FAF8F4" stroke-width="1.2" opacity="0.5"/>
</svg>
